<mxfile host="app.diagrams.net" modified="2021-06-11T11:56:02.762Z" agent="5.0 (Windows NT 10.0; Win64; x64) AppleWebKit/537.36 (KHTML, like Gecko) Chrome/91.0.4472.77 Safari/537.36 Edg/91.0.864.41" etag="78cZVomRWL4y5GhEecxJ" version="14.7.6" type="github">
  <diagram id="ymyDIuCwlqtvMNHXzihM" name="Page-1">
    <mxGraphModel dx="1038" dy="617" grid="1" gridSize="10" guides="1" tooltips="1" connect="1" arrows="1" fold="1" page="1" pageScale="1" pageWidth="827" pageHeight="1169" math="0" shadow="0">
      <root>
        <mxCell id="0" />
        <mxCell id="1" parent="0" />
        <mxCell id="mm4K9sb49_UpdGt-76pQ-3" value="" style="edgeStyle=orthogonalEdgeStyle;rounded=0;orthogonalLoop=1;jettySize=auto;html=1;" edge="1" parent="1" source="mm4K9sb49_UpdGt-76pQ-1" target="mm4K9sb49_UpdGt-76pQ-2">
          <mxGeometry relative="1" as="geometry" />
        </mxCell>
        <mxCell id="mm4K9sb49_UpdGt-76pQ-1" value="button" style="rounded=1;whiteSpace=wrap;html=1;" vertex="1" parent="1">
          <mxGeometry x="310" y="100" width="120" height="60" as="geometry" />
        </mxCell>
        <mxCell id="mm4K9sb49_UpdGt-76pQ-5" value="" style="edgeStyle=orthogonalEdgeStyle;rounded=0;orthogonalLoop=1;jettySize=auto;html=1;" edge="1" parent="1" source="mm4K9sb49_UpdGt-76pQ-2">
          <mxGeometry relative="1" as="geometry">
            <mxPoint x="490" y="270" as="targetPoint" />
          </mxGeometry>
        </mxCell>
        <mxCell id="mm4K9sb49_UpdGt-76pQ-8" value="" style="edgeStyle=orthogonalEdgeStyle;rounded=0;orthogonalLoop=1;jettySize=auto;html=1;" edge="1" parent="1" source="mm4K9sb49_UpdGt-76pQ-2" target="mm4K9sb49_UpdGt-76pQ-7">
          <mxGeometry relative="1" as="geometry" />
        </mxCell>
        <mxCell id="mm4K9sb49_UpdGt-76pQ-2" value="文本输入框内是否有文本" style="rhombus;whiteSpace=wrap;html=1;rounded=1;" vertex="1" parent="1">
          <mxGeometry x="330" y="230" width="80" height="80" as="geometry" />
        </mxCell>
        <mxCell id="mm4K9sb49_UpdGt-76pQ-6" value="是" style="text;html=1;align=center;verticalAlign=middle;resizable=0;points=[];autosize=1;strokeColor=none;" vertex="1" parent="1">
          <mxGeometry x="425" y="250" width="30" height="20" as="geometry" />
        </mxCell>
        <mxCell id="mm4K9sb49_UpdGt-76pQ-11" value="" style="edgeStyle=orthogonalEdgeStyle;rounded=0;orthogonalLoop=1;jettySize=auto;html=1;" edge="1" parent="1" source="mm4K9sb49_UpdGt-76pQ-7" target="mm4K9sb49_UpdGt-76pQ-10">
          <mxGeometry relative="1" as="geometry" />
        </mxCell>
        <mxCell id="mm4K9sb49_UpdGt-76pQ-7" value="设置文本框颜色为红色" style="whiteSpace=wrap;html=1;rounded=1;" vertex="1" parent="1">
          <mxGeometry x="150" y="240" width="120" height="60" as="geometry" />
        </mxCell>
        <mxCell id="mm4K9sb49_UpdGt-76pQ-9" value="否" style="text;html=1;align=center;verticalAlign=middle;resizable=0;points=[];autosize=1;strokeColor=none;" vertex="1" parent="1">
          <mxGeometry x="300" y="250" width="30" height="20" as="geometry" />
        </mxCell>
        <mxCell id="mm4K9sb49_UpdGt-76pQ-10" value="设置文本框文本为原来的2倍" style="whiteSpace=wrap;html=1;rounded=1;" vertex="1" parent="1">
          <mxGeometry x="150" y="380" width="120" height="60" as="geometry" />
        </mxCell>
        <mxCell id="mm4K9sb49_UpdGt-76pQ-14" value="" style="edgeStyle=orthogonalEdgeStyle;rounded=0;orthogonalLoop=1;jettySize=auto;html=1;" edge="1" parent="1" source="mm4K9sb49_UpdGt-76pQ-12" target="mm4K9sb49_UpdGt-76pQ-13">
          <mxGeometry relative="1" as="geometry" />
        </mxCell>
        <mxCell id="mm4K9sb49_UpdGt-76pQ-12" value="设置文本框颜色为无色" style="whiteSpace=wrap;html=1;rounded=1;" vertex="1" parent="1">
          <mxGeometry x="490" y="240" width="120" height="60" as="geometry" />
        </mxCell>
        <mxCell id="mm4K9sb49_UpdGt-76pQ-13" value="设置文本框文本为原来的二分之一" style="whiteSpace=wrap;html=1;rounded=1;" vertex="1" parent="1">
          <mxGeometry x="490" y="380" width="120" height="60" as="geometry" />
        </mxCell>
        <mxCell id="mm4K9sb49_UpdGt-76pQ-15" value="等待点击button" style="rounded=1;whiteSpace=wrap;html=1;" vertex="1" parent="1">
          <mxGeometry x="320" y="555" width="120" height="60" as="geometry" />
        </mxCell>
        <mxCell id="mm4K9sb49_UpdGt-76pQ-16" value="" style="endArrow=none;html=1;" edge="1" parent="1">
          <mxGeometry width="50" height="50" relative="1" as="geometry">
            <mxPoint x="380" y="500" as="sourcePoint" />
            <mxPoint x="550" y="440" as="targetPoint" />
            <Array as="points">
              <mxPoint x="550" y="500" />
            </Array>
          </mxGeometry>
        </mxCell>
        <mxCell id="mm4K9sb49_UpdGt-76pQ-17" value="" style="endArrow=none;html=1;entryX=0.5;entryY=1;entryDx=0;entryDy=0;" edge="1" parent="1" target="mm4K9sb49_UpdGt-76pQ-10">
          <mxGeometry width="50" height="50" relative="1" as="geometry">
            <mxPoint x="380" y="500" as="sourcePoint" />
            <mxPoint x="230" y="460" as="targetPoint" />
            <Array as="points">
              <mxPoint x="210" y="500" />
            </Array>
          </mxGeometry>
        </mxCell>
        <mxCell id="mm4K9sb49_UpdGt-76pQ-18" value="" style="endArrow=none;html=1;exitX=0.56;exitY=-0.017;exitDx=0;exitDy=0;exitPerimeter=0;" edge="1" parent="1" source="mm4K9sb49_UpdGt-76pQ-15">
          <mxGeometry width="50" height="50" relative="1" as="geometry">
            <mxPoint x="375" y="550" as="sourcePoint" />
            <mxPoint x="387" y="500" as="targetPoint" />
          </mxGeometry>
        </mxCell>
      </root>
    </mxGraphModel>
  </diagram>
</mxfile>
